<?xml version="1.0" encoding="iso-8859-1"?>
<!-- Generator: Adobe Illustrator 19.0.0, SVG Export Plug-In . SVG Version: 6.00 Build 0)  -->
<svg xmlns="http://www.w3.org/2000/svg" xmlns:xlink="http://www.w3.org/1999/xlink" version="1.1" id="Layer_1" x="0px" y="0px" viewBox="0 0 494.359 494.359" style="enable-background:new 0 0 494.359 494.359;" xml:space="preserve" width="512px" height="512px">
<g>
	<path d="M494.359,103.528c0-14.691-5.721-28.502-16.109-38.891c-10.388-10.388-24.199-16.109-38.891-16.109   s-28.503,5.721-38.891,16.109L203.911,261.196c-1.522-0.083-3.049-0.135-4.585-0.135c-22.037,0-42.754,8.582-58.336,24.164   c-22.661,22.661-52.795,35.142-84.849,35.144c-10.505,0.001-20.965-1.37-31.09-4.074L0,309.605l6.689,25.052   c6.768,25.348,20.199,48.599,38.842,67.24c28.331,28.332,65.999,43.935,106.065,43.935c0.003,0-0.002,0,0.001,0   c40.063,0,77.735-15.604,106.065-43.934c17.237-17.237,25.225-40.266,23.989-62.88L478.25,142.419   C488.639,132.031,494.359,118.219,494.359,103.528z M236.45,380.684c-22.665,22.665-52.8,35.147-84.854,35.147   c-32.053,0-62.188-12.482-84.853-35.148c-9.053-9.052-16.568-19.458-22.287-30.768c3.884,0.302,7.783,0.454,11.687,0.453   c40.066-0.002,77.732-15.604,106.06-43.931c9.916-9.916,23.1-15.377,37.123-15.377s27.208,5.461,37.124,15.377   C256.919,326.908,256.919,360.215,236.45,380.684z M257.663,285.225c-6.09-6.09-12.973-11.094-20.405-14.951l60.709-60.71   l35.355,35.355l-60.728,60.729C268.794,298.291,263.824,291.386,257.663,285.225z M457.037,121.206L354.536,223.707l-35.355-35.355   L421.682,85.85c4.722-4.722,11-7.322,17.678-7.322s12.956,2.601,17.678,7.322c4.722,4.722,7.322,11,7.322,17.678   S461.759,116.483,457.037,121.206z" fill="#333333"/>
</g>
<g>
</g>
<g>
</g>
<g>
</g>
<g>
</g>
<g>
</g>
<g>
</g>
<g>
</g>
<g>
</g>
<g>
</g>
<g>
</g>
<g>
</g>
<g>
</g>
<g>
</g>
<g>
</g>
<g>
</g>
</svg>
