<?xml version="1.0" encoding="iso-8859-1"?>
<!-- Generator: Adobe Illustrator 19.0.0, SVG Export Plug-In . SVG Version: 6.00 Build 0)  -->
<svg xmlns="http://www.w3.org/2000/svg" xmlns:xlink="http://www.w3.org/1999/xlink" version="1.1" id="Layer_1" x="0px" y="0px" viewBox="0 0 485 485" style="enable-background:new 0 0 485 485;" xml:space="preserve" width="512px" height="512px">
<g>
	<polygon points="30,30 106,30 106,0 0,0 0,106 30,106  " fill="#333333"/>
	<polygon points="379,0 379,30 455,30 455,106 485,106 485,0  " fill="#333333"/>
	<rect x="197.16" width="91" height="30" fill="#333333"/>
	<rect x="197.16" y="455" width="91" height="30" fill="#333333"/>
	<polygon points="455,455 379,455 379,485 485,485 485,379 455,379  " fill="#333333"/>
	<rect x="455" y="197" width="30" height="91" fill="#333333"/>
	<rect y="197" width="30" height="91" fill="#333333"/>
	<path d="M36.456,367.226L2.932,482.068l114.842-33.525l216.585-216.585l-81.316-81.317L36.456,367.226z M101.992,421.898   l-54.924,16.034l16.033-54.924l140.673-140.673l38.891,38.891L101.992,421.898z M263.878,260.013l-38.89-38.891l28.055-28.054   l38.891,38.891L263.878,260.013z" fill="#333333"/>
</g>
<g>
</g>
<g>
</g>
<g>
</g>
<g>
</g>
<g>
</g>
<g>
</g>
<g>
</g>
<g>
</g>
<g>
</g>
<g>
</g>
<g>
</g>
<g>
</g>
<g>
</g>
<g>
</g>
<g>
</g>
</svg>
