<svg height="512pt" viewBox="0 0 512 512" width="512pt" xmlns="http://www.w3.org/2000/svg"><path d="m452 0h-392c-33.085938 0-60 26.914062-60 60v392c0 33.085938 26.914062 60 60 60h392c33.085938 0 60-26.914062 60-60v-392c0-33.085938-26.914062-60-60-60zm20 452c0 11.027344-8.972656 20-20 20h-392c-11.027344 0-20-8.972656-20-20v-392c0-11.027344 8.972656-20 20-20h392c11.027344 0 20 8.972656 20 20zm-73.652344-116c0 11.046875-8.953125 20-20 20h-196.410156l17.5625 17.5625c7.808594 7.8125 7.808594 20.476562 0 28.285156-7.8125 7.8125-20.476562 7.808594-28.285156 0l-51.707032-51.703125c-7.863281-7.855469-7.695312-20.597656 0-28.285156l51.707032-51.707031c7.808594-7.808594 20.472656-7.808594 28.285156 0 7.808594 7.8125 7.808594 20.476562 0 28.285156l-17.5625 17.5625h196.410156c11.046875 0 20 8.953125 20 20zm-5.855468-145.855469-51.707032 51.703125c-7.8125 7.8125-20.472656 7.808594-28.285156 0-7.808594-7.8125-7.808594-20.476562 0-28.285156l17.5625-17.5625h-196.410156c-11.046875 0-20-8.953125-20-20s8.953125-20 20-20h196.410156l-17.5625-17.5625c-7.808594-7.8125-7.808594-20.476562 0-28.285156 7.8125-7.808594 20.476562-7.808594 28.285156 0l51.707032 51.703125c7.640624 7.632812 7.910156 20.382812 0 28.289062zm0 0"/></svg>