<?xml version="1.0" encoding="iso-8859-1"?>
<!-- Generator: Adobe Illustrator 19.0.0, SVG Export Plug-In . SVG Version: 6.00 Build 0)  -->
<svg version="1.1" id="Layer_1" xmlns="http://www.w3.org/2000/svg" xmlns:xlink="http://www.w3.org/1999/xlink" x="0px" y="0px"
	 viewBox="0 0 330 330" style="enable-background:new 0 0 330 330;" xml:space="preserve">
<g id="XMLID_28_">
	<path id="XMLID_29_" d="M315,0H15C6.716,0,0,6.716,0,15v300c0,8.284,6.716,15,15,15h300c8.284,0,15-6.716,15-15V15
		C330,6.716,323.284,0,315,0z M300,300H30V30h270V300z"/>
	<path id="XMLID_71_" d="M194.394,255.607C197.322,258.536,201.161,260,205,260s7.678-1.464,10.606-4.394
		c5.858-5.858,5.858-15.355,0-21.213l-69.393-69.392l69.393-69.395c5.858-5.858,5.858-15.355,0-21.213
		c-5.857-5.857-15.355-5.858-21.213,0.001l-80,80.002c-2.813,2.813-4.394,6.628-4.394,10.607c0,3.979,1.58,7.794,4.394,10.607
		L194.394,255.607z"/>
</g>
<g>
</g>
<g>
</g>
<g>
</g>
<g>
</g>
<g>
</g>
<g>
</g>
<g>
</g>
<g>
</g>
<g>
</g>
<g>
</g>
<g>
</g>
<g>
</g>
<g>
</g>
<g>
</g>
<g>
</g>
</svg>
