<?xml version="1.0" encoding="iso-8859-1"?>
<!-- Generator: Adobe Illustrator 17.1.0, SVG Export Plug-In . SVG Version: 6.00 Build 0)  -->
<!DOCTYPE svg PUBLIC "-//W3C//DTD SVG 1.1//EN" "http://www.w3.org/Graphics/SVG/1.1/DTD/svg11.dtd">
<svg version="1.1" id="Capa_1" xmlns="http://www.w3.org/2000/svg" xmlns:xlink="http://www.w3.org/1999/xlink" x="0px" y="0px"
	 viewBox="0 0 347 347" style="enable-background:new 0 0 347 347;" xml:space="preserve">
<path d="M322,0H25C11.215,0,0,11.215,0,25v297c0,13.785,11.215,25,25,25h297c13.785,0,25-11.215,25-25V25
	C347,11.215,335.785,0,322,0z M56,84h144V47.705c0-7.156,4.681-10.415,9.03-10.415c2.042,0,4.119,0.649,6.175,1.93l86.066,53.64
	c3.505,2.183,5.517,5.468,5.517,9.013c0,3.537-2.004,6.814-5.498,8.991l-86.084,53.638c-2.057,1.281-4.134,1.931-6.176,1.931
	c-4.35,0-9.03-3.259-9.03-10.415V124H56c-11.046,0-20-8.954-20-20S44.954,84,56,84z M290,262H146v36.295
	c0,7.156-4.664,10.415-8.998,10.415c-2.036,0-4.11-0.649-6.166-1.93l-86.046-53.64c-3.508-2.185-5.521-5.473-5.521-9.02
	c-0.001-3.535,2.001-6.81,5.492-8.984l86.073-53.638c2.057-1.281,4.131-1.931,6.167-1.931c4.334,0,8.998,3.259,8.998,10.415V222h144
	c11.046,0,20,8.954,20,20S301.046,262,290,262z"/>
<g>
</g>
<g>
</g>
<g>
</g>
<g>
</g>
<g>
</g>
<g>
</g>
<g>
</g>
<g>
</g>
<g>
</g>
<g>
</g>
<g>
</g>
<g>
</g>
<g>
</g>
<g>
</g>
<g>
</g>
</svg>
